<?xml version="1.0" encoding="utf-8"?>
<!-- Generator: Adobe Illustrator 22.0.0, SVG Export Plug-In . SVG Version: 6.00 Build 0)  -->
<svg version="1.1" id="Camada_1" xmlns="http://www.w3.org/2000/svg" xmlns:xlink="http://www.w3.org/1999/xlink" x="0px" y="0px"
	 viewBox="0 0 170 35" style="enable-background:new 0 0 170 35;" xml:space="preserve">
<style type="text/css">
	.st0{fill:#EB80A8;}
	.st1{fill:#F6B4CA;}
	.st2{fill:#FBD9E3;}
	.st3{fill:#FDEBF1;}
	.st4{fill:#CAE4EC;}
	.st5{fill:#0091B3;}
	.st6{fill:#8AC7D8;}
	.st7{fill:#E7F3F6;}
	.st8{fill:#DDF0B4;}
	.st9{fill:#93D500;}
	.st10{fill:#C3E67E;}
	.st11{fill:#F0F8DE;}
	.st12{fill:#F8C0D2;}
</style>
<g>
	<g>
		<path class="st0" d="M18.5,4.6c0,1.6-1.3,2.8-2.8,2.8c-1.6,0-2.8-1.3-2.8-2.8c0-1.6,1.3-2.9,2.8-2.9C17.3,1.8,18.5,3.1,18.5,4.6z"
			/>
		<path class="st1" d="M18.1,3.5c0.1,0.2,0.1,0.5,0.1,0.7c0,1.5-1.2,2.6-2.6,2.6c-1.1,0-2-0.6-2.4-1.6c0.3,1.1,1.3,1.9,2.5,1.9
			c1.5,0,2.6-1.2,2.6-2.6C18.3,4.2,18.2,3.9,18.1,3.5z"/>
		<g>
			<path class="st2" d="M39.5,0.2c0,0-0.2,22.8-23,21.6c1-8.8,3.1-12,3.1-12L30,1.3"/>
			<path class="st0" d="M39.5,0.2c0,0-19.7,3.2-23,21.5C16.5,21.8,13.2-2.5,39.5,0.2z"/>
			<path class="st1" d="M17.4,13.1c0,0,3.1-11.9,15.8-12.3C33.2,0.9,22.2,1.6,17.4,13.1z"/>
			<path class="st3" d="M17.1,21.4c0,0,12.6-0.4,16.5-8.2C33.5,13.2,24.3,20.5,17.1,21.4z"/>
		</g>
		<g>
			<path class="st2" d="M0.1,4.9c0,0-2.1,17.1,15.1,16.4c0.1-6.6-1.1-9.1-1.1-9.1l-7-6.4"/>
			<path class="st0" d="M0.1,4.9c0,0,14.5,2.5,15.1,16.4C15.2,21.4,20.2,3.1,0.1,4.9z"/>
			<path class="st1" d="M7.4,5.8c0,0,6.6,1.7,7.9,9.1C15.3,14.9,13.9,9.7,7.4,5.8z"/>
			<path class="st3" d="M14.5,20.9c0,0-8.2-0.3-10-5.5C4.6,15.5,10,20.3,14.5,20.9z"/>
		</g>
		<g>
			<path class="st4" d="M15.2,22.7c0,0-13.5-1.8-14.7,11.8c5.3,0.2,7.4-0.8,7.4-0.8l5.9-5.5"/>
			<path class="st5" d="M15.2,22.7c0,0-3.6,11.5-14.7,11.8C0.4,34.5,14.5,38.6,15.2,22.7z"/>
			<path class="st6" d="M6,34.6c0,0,5.7-0.4,8.2-6.9C14.3,27.6,10.8,33.6,6,34.6z"/>
			<path class="st7" d="M14.3,22.9c0,0-6.7,0.4-8.6,4.5C5.8,27.4,10.6,23.4,14.3,22.9z"/>
		</g>
		<g>
			<path class="st8" d="M24.6,33.3c0,0,2-10.2-8.3-10.5c-0.4,4,0.3,5.5,0.3,5.5l3.9,4.2"/>
			<path class="st9" d="M24.6,33.3c0,0-8.5-2.1-8.3-10.5C16.3,22.7,12.6,33.5,24.6,33.3z"/>
			<path class="st10" d="M16.2,27.3c0,0,0.5,4.6,5.9,5.8C22.1,33.1,17.1,31.1,16.2,27.3z"/>
			<path class="st11" d="M17.1,23.2c0,0,4.3,0.5,5,3.3C22.1,26.5,19.5,23.7,17.1,23.2z"/>
		</g>
	</g>
	<g>
		<g>
			<g>
				<g>
					<path class="st5" d="M43.8,22.8c0.1,0.7,0.3,1.3,0.4,2l0.1,0.4c0.2,1,0.2,1.4,0.3,1.8c0.1,0.5,0.6,0.8,1.2,0.8
						c0.8,0,1.3-0.3,1.5-0.7l0.3-0.5c0.1-0.1,0.1-0.2,0.2-0.4c0.1-0.1,0.1-0.2,0.2-0.3l0.1-0.1c0-0.1,0.1-0.1,0.1-0.2
						c0.1-0.1,0.2-0.4,0.4-0.6l0,0c0.4-0.7,0.8-1.4,1.3-2.2c0.3-0.5,0.6-1,0.9-1.5c0.3-0.6,0.7-1.1,1-1.7l-1.1,5.8
						c-0.2,1-0.3,1.7-0.5,2.1c-0.1,0.3,0,0.6,0.2,0.8c0.2,0.3,0.6,0.5,1,0.5h0h0.5c0,0,0.1,0,0.1,0c0.9,0,1.6-0.5,1.6-1.2l0-0.2
						c0,0,0-0.1,0-0.1l0-0.1c0.1-1.1,0.5-3.7,1.4-7.9c0.3-1.6,0.5-2.7,0.8-3.4c0.1-0.2,0-0.5-0.1-0.7c-0.2-0.3-0.6-0.5-1.1-0.5h0
						h-1.1c-1,0-1.8,0.4-2.1,1.1c-0.4,0.7-0.8,1.6-1.2,2.2l-2.3,4c-0.1,0.1-0.2,0.2-0.3,0.5c0,0,0,0,0,0c0,0,0,0,0,0c0,0,0,0,0,0
						c-0.2,0.3-0.3,0.5-0.4,0.6c0-0.2-0.1-0.4-0.1-0.7c0-0.3-0.1-0.5-0.2-0.9c-0.2-0.9-0.3-1.8-0.5-2.6c-0.2-1.1-0.3-2.1-0.4-3
						c-0.1-0.7-0.9-1.3-1.8-1.3l-0.1,0c-0.2,0-0.3,0-0.5,0c-0.2,0-0.3,0-0.5,0c0,0-0.1,0-0.1,0c-0.9,0-1.6,0.5-1.6,1.2
						c0,0.9-0.3,2.5-0.8,4.8c-0.1,0.4-0.7,2.8-1,4.2c-0.3,1.3-0.6,2.1-0.8,2.7c-0.1,0.2,0,0.5,0.1,0.8c0.2,0.3,0.6,0.5,1,0.5v-0.2v0
						c0,0,0,0,0,0l0,0l0,0.2h0.2c1,0,1.8-0.5,1.8-1.2c0.1-0.5,0.2-1.3,0.4-2.5c0.2-0.8,0.3-1.6,0.5-2.5c0.1-0.8,0.3-1.5,0.4-2.2
						l0.1-0.5c0.1,0.7,0.3,1.5,0.4,2.3L43.8,22.8z"/>
				</g>
				<g>
					<g>
						<path class="st5" d="M59.5,29C59.5,29,59.5,29,59.5,29c0.9,0,1.5-0.1,2-0.2c0.7-0.2,1.2-0.6,1.4-1.2c0.1-0.2,0-0.4-0.1-0.5
							c-0.2-0.3-0.7-0.4-1.1-0.2c-0.4,0.2-1,0.4-1.7,0.4c-1.4,0-1.7-1.2-1.7-2.2c0-0.2,0-0.4,0-0.5c1.5-0.1,2.8-0.2,3.9-0.8
							c0.4-0.2,1.5-0.8,2.1-1.7c0.5-0.7,0.7-1.5,0.7-2.1c0-1.3-0.9-2.6-3.4-2.6c-0.7,0-3.1,0.2-4.8,2.3C56.5,20,55,21.9,55,24.4
							C55,26.5,55.6,28.9,59.5,29z M58.3,23.5c0.2-1.4,0.7-2.8,1.2-3.5c0.8-0.9,1.4-1,1.6-1c0.4,0,0.7,0.4,0.7,1
							c0,0.7-0.3,1.3-0.7,1.8C60.2,22.7,59.2,23.2,58.3,23.5z"/>
					</g>
				</g>
				<g>
					<path class="st5" d="M69,20.7c0.1-0.7,0.2-1.2,0.3-1.6c0-0.1,0-0.2,0.1-0.3c0.1-0.2,0-0.5-0.2-0.7c-0.3-0.3-0.8-0.5-1.3-0.4
						c-0.3,0.1-0.5,0.1-0.7,0.1C66.4,17.9,66,18.5,66,19c0,0,0,0,0,0.1c0,0,0,0.1,0,0.1c0,1.7-1.1,7.4-1.7,9.8
						c-0.6,2-1.2,2.4-1.4,2.4c-0.6,0.1-1.3,0.3-1.5,0.9c-0.1,0.2,0,0.5,0.1,0.7c0.2,0.3,0.5,0.4,0.9,0.4c0.1,0,0.1,0,0.2,0
						c1.2-0.1,2.6-0.3,3.6-1.5c0.8-1,1.2-2.4,1.6-4.5L69,20.7z"/>
				</g>
				<g>
					<path class="st5" d="M68,17c1.3,0,2-1.1,2-1.9c0-0.7-0.6-1.2-1.5-1.2c-1.3,0-1.9,1.1-1.9,1.8C66.4,16.6,67.2,17,68,17z"/>
				</g>
				<g>
					<g>
						<path class="st5" d="M70.7,27.9c0.8,0.7,1.9,1.1,3.2,1.1c4.6,0,6.7-4.5,6.7-7.7c0-0.5,0-1.7-1.1-2.8c-0.7-0.7-1.8-1.1-3.3-1.1
							c-4.6,0-6.7,4.3-6.7,7.4C69.4,26.5,70.1,27.4,70.7,27.9z M75.8,19.1c0.5,0,0.8,0.3,1.1,0.5c0.5,0.4,0.5,1.3,0.5,1.7
							c0,1.3-0.6,6-3.3,6c-1,0-1.5-0.8-1.5-2.3C72.5,23.7,73.1,19.1,75.8,19.1z"/>
					</g>
				</g>
				<g>
					<path class="st5" d="M80.5,28.1c0.2,0.3,0.7,0.5,1.2,0.5h0.1c0,0,0.1,0,0.1,0c0.8,0,1.6-0.5,1.6-1.2c0.1-1.2,0.5-3.8,0.8-4.8
						c0.6-2.3,1.8-2.7,2.1-2.8c0,0,0,0,0,0c0.5-0.1,1.5-0.5,1.8-1.2c0.1-0.3,0-0.5-0.1-0.8c-0.3-0.4-0.7-0.5-1.3-0.4
						c-0.5,0.2-0.9,0.4-1.2,0.6c-0.2,0.2-0.5,0.4-0.7,0.6c0-0.2-0.1-0.3-0.2-0.5c-0.3-0.3-0.8-0.5-1.4-0.4c0,0,0,0,0,0
						c-0.1,0-0.3,0-0.5,0c-0.9,0.1-1.2,0.8-1.2,1.3c0,0.5,0,1.1-0.2,2.1l-1,5.3c0,0.2-0.1,0.5-0.2,0.9
						C80.3,27.6,80.4,27.9,80.5,28.1z"/>
				</g>
			</g>
		</g>
		<path class="st6" d="M41.6,15.7c0,0-0.9,7.8-2.5,11.4c-0.2,0.4,0.3,2.3,1.4-3.5C41.6,17.8,42,14.2,41.6,15.7z"/>
		<path class="st6" d="M58.6,18.5c0,0-2.9,1.7-3.3,5.5c-0.4,3.8,2.7,4.5,2.7,4.5S52.3,24.5,58.6,18.5z"/>
		<path class="st6" d="M66.3,19.1c0,0-0.2,8.4-2.6,11.9C63.7,31.1,66.6,29,66.3,19.1z"/>
		<path class="st6" d="M73.3,18.2c0,0-2.3,1-3.3,4.6c-1.1,3.6,1.4,5.6,2.4,5.7c0,0-0.8-0.4-1.4-1.6C69.8,25,69.2,21.6,73.3,18.2z"/>
		<path class="st6" d="M82.2,18.6c0,0-0.5,5.2-1.4,8.8C80.8,27.5,82.5,23.5,82.2,18.6z"/>
	</g>
	<g>
		<g>
			<g>
				<g>
					<path class="st9" d="M95.7,26.4c-0.1,0-0.2,0-0.3,0c-0.8,0.3-1.6,0.3-2.3-0.2c-0.6-0.4-0.9-1.1-0.9-2.3c0-2.3,1.2-4.7,3.3-4.7
						c0.2,0,0.4,0,0.6,0.1c0,0,0,0,0,0c0.2,0.1,0.4,0.1,0.7,0.1c0.7,0,1-0.3,1.1-0.6c0.1-0.3,0.1-0.6-0.1-0.8
						c-0.2-0.3-0.4-0.5-0.7-0.6c-0.4-0.1-0.8-0.1-1.3-0.1c-4.5,0-6.9,3.5-6.9,6.7c0,2.7,1.9,4.4,5,4.4c0.4,0,0.7,0,1-0.1
						c0.7-0.1,1.3-0.5,1.5-1c0.1-0.2,0-0.4-0.1-0.6C96.3,26.6,96,26.4,95.7,26.4z"/>
					<path class="st9" d="M106.5,18.4c-0.6-0.7-1.7-1-3.2-1c-4.4,0-6.4,4.1-6.4,7c0,1.7,0.7,2.5,1.2,3.1c0.7,0.6,1.8,1,3,1
						c4.4,0,6.4-4.3,6.4-7.3C107.5,20.7,107.5,19.5,106.5,18.4z M101.3,26.7c-0.9,0-1.3-0.7-1.3-2.1c0-1.1,0.5-5.5,3-5.5
						c0.5,0,0.8,0.2,0.9,0.4c0.4,0.4,0.4,1.1,0.4,1.5C104.4,22.3,103.9,26.7,101.3,26.7z"/>
					<path class="st9" d="M114.9,17.3c-1.1,0-2.1,0.3-2.9,0.9c0-0.1-0.1-0.2-0.2-0.3c-0.2-0.3-0.7-0.4-1.1-0.4c-0.1,0-0.1,0-0.1,0
						c0,0-0.1,0-0.1,0c-0.2,0-0.3,0.1-0.5,0.1c-0.8,0.1-1.1,0.7-1.1,1.2V19c0,0.7-0.2,1.7-0.3,2.3l-0.6,3.5
						c-0.1,0.9-0.3,1.5-0.4,2.2c-0.1,0.2,0,0.5,0.2,0.7c0.2,0.3,0.7,0.5,1.2,0.5h0h0.1c0.8,0,1.6-0.4,1.7-1.2c0-0.4,0.1-0.8,0.1-1.3
						l0.3-2.2c0.2-1,0.4-2.3,0.9-2.9c0.5-0.7,1.3-1.1,1.9-1.1c0.6,0,0.8,0.1,0.8,1c0,0.6-0.1,1.4-0.3,2.1l-0.2,1.2
						c-0.2,1.5-0.4,2.5-0.7,3.2c-0.1,0.2,0,0.5,0.1,0.7c0.2,0.3,0.7,0.5,1.1,0.5v-0.3v0l0,0v0l0,0.3h0.2c0.9,0,1.6-0.5,1.7-1.2
						c0-0.8,0.3-2.2,0.5-3.2c0-0.2,0.1-0.3,0.1-0.5c0-0.3,0.1-0.5,0.1-0.8c0-0.2,0.1-0.4,0.1-0.6c0-0.2,0.1-0.5,0.1-0.7
						c0.2-0.9,0.2-1.3,0.2-1.6C117.9,17.9,116.3,17.3,114.9,17.3z"/>
				</g>
			</g>
			<path class="st10" d="M92.7,18.3c0,0-2.8,1.6-3.1,5.3c-0.3,3.6,2.6,4.3,2.6,4.3S86.6,24.1,92.7,18.3z"/>
			<path class="st10" d="M101,18c0,0-2.2,1-3.2,4.5c-1,3.5,1.3,5.4,2.3,5.5c0,0-0.8-0.4-1.4-1.5C97.6,24.6,97.1,21.3,101,18z"/>
			<path class="st10" d="M109.4,18.4c0,0-0.5,5.2-1.4,8.8C108,27.3,109.7,23.3,109.4,18.4z"/>
		</g>
		<g>
			<g>
				<g>
					<g>
						<path class="st0" d="M126.9,19.7l-1.2-0.7c-0.7-0.4-1.4-0.8-1.4-2c0-0.6,0.5-2.4,2.7-2.4c0.8,0,1.3,0.2,1.7,0.4
							c0.3,0.1,0.7,0.2,0.9,0.2c0.6,0,1-0.2,1.1-0.6c0,0,0,0,0,0c0.1-0.3,0-0.7-0.2-1c-0.2-0.3-0.6-0.6-1-0.7
							c-0.7-0.1-1.4-0.2-2-0.2c-4.2,0-6.5,2.5-6.5,4.9c0,1.6,1.3,2.5,2.4,3.2l1.2,0.7c1.2,0.7,1.7,1.1,1.7,2c0,1.5-1.3,2.6-3,2.6
							c-0.4,0-1-0.1-1.5-0.2l0,0c0,0,0,0-0.1,0c-0.3-0.2-0.7-0.2-1-0.2c-0.6,0-1.1,0.2-1.2,0.7c-0.1,0.3-0.1,0.7,0.1,1
							c0.2,0.3,0.5,0.6,0.9,0.7c0.6,0.2,1.3,0.2,1.9,0.2c1.7,0,3.3-0.4,4.5-1.1c0.7-0.4,2.8-2,2.8-4.1
							C129.5,21.3,128.1,20.4,126.9,19.7z"/>
					</g>
					<g>
						<g>
							<path class="st0" d="M140,16.3l-0.3,0.1c-0.6-0.2-1.2-0.4-2.2-0.4c-1.4,0-2.7,0.4-3.7,1.2c-3,2.4-3.6,6.1-3.6,7.2
								c0,2.5,1.9,3.7,3.6,3.7c1.4,0,2.4-0.8,3.2-1.8c0,0.2,0,0.3,0,0.5c0,0.2,0.1,0.5,0.3,0.7c0.3,0.3,0.7,0.5,1.2,0.5
								c0,0,0.1,0,0.1,0c0.8,0,1.6-0.4,1.6-1.1c0-0.6,0.2-2.1,0.4-3.7l0.4-2c0.3-1.8,0.5-2.8,0.7-3.5l0-0.1c0-0.3,0-0.5-0.2-0.8
								C141,16.3,140.5,16.1,140,16.3z M137.2,17.7c0.4,0,0.7,0.1,1.1,0.2l-0.5,2.7c-0.4,2.1-0.7,3.2-1.2,3.9
								c-0.7,1.1-1.5,1.3-1.9,1.3c-0.8,0-1.2-0.7-1.2-2.2C133.5,22.4,134.1,17.7,137.2,17.7z"/>
						</g>
					</g>
					<g>
						<path class="st0" d="M145.7,25.9c0,0-0.1,0-0.1,0c0,0,0,0-0.1,0c-0.3,0.1-0.4,0.1-0.7,0.1c-0.1,0-0.2-0.2-0.2-0.4
							c-0.1-0.4,0-1,0.1-1.7c0,0,0-0.1,0-0.1c0-0.1,0-0.1,0-0.1c0-0.2,0.1-0.5,0.1-0.7c0-0.1,0-0.1,0-0.2c0,0,0-0.1,0-0.1
							c0.1-0.5,0.2-1,0.3-1.5c0.1-0.4,0.1-0.8,0.2-1.3c0.2-0.9,0.3-1.9,0.5-2.7c0-0.2,0.1-0.5,0.1-0.7l0.1-0.3
							c0-0.2,0.1-0.3,0.1-0.5c0.1-0.9,0.3-1.5,0.4-2c0-0.3-0.1-0.5-0.3-0.7c-0.3-0.3-0.9-0.5-1.3-0.4c-0.3,0.1-0.4,0.1-0.6,0.1
							c-0.8,0.1-1.2,0.7-1.2,1.3c0,0.6-0.2,1.9-0.6,4.2l-0.4,2.5c-0.1,0.8-0.2,1.2-0.3,1.5c0,0.1,0,0.2,0,0.2c0,0.1,0,0.1,0,0.2
							c0,0,0,0.1,0,0.2c0,0.1,0,0.2-0.1,0.4c0,0.1,0,0.2-0.1,0.5c0,0,0,0.1,0,0.1c-0.1,0.3-0.1,0.8-0.1,1.2c0,0.9,0.1,1.5,0.6,2
							c0.4,0.5,1.2,0.7,2.1,0.7h0c0.4,0,0.8,0,1.1-0.1c0.8-0.1,1.4-0.5,1.6-1c0.1-0.2,0.1-0.4-0.1-0.6
							C146.5,25.8,146.1,25.7,145.7,25.9z"/>
					</g>
					<g>
						<path class="st0" d="M158.5,16.7c-0.2-0.3-0.7-0.5-1.1-0.5c-0.1,0-0.1,0-0.2,0c-0.1,0-0.2,0-0.3,0.1c0,0-0.1,0-0.1,0
							c0,0,0,0-0.1,0c-0.8,0.2-1.4,0.8-1.4,1.5c0,0.6-0.1,1.4-0.3,2.5c-0.3,1.5-0.8,3.4-1.2,4.2c0,0,0,0,0,0.1
							c-0.8,1.3-1.9,1.4-2,1.4c-0.6,0-0.9-0.4-0.9-1.2c0-0.4,0.1-0.9,0.3-1.9l0.6-3c0-0.1,0-0.1,0-0.2c0-0.1,0-0.1,0-0.2
							c0.1-0.6,0.2-1,0.4-1.6l0.1-0.3c0-0.2,0-0.5-0.2-0.7c-0.3-0.3-0.7-0.5-1.2-0.5c-0.1,0-0.1,0-0.2,0c-0.1,0-0.2,0-0.3,0.1
							c0,0,0,0,0,0c-0.1,0-0.2,0-0.3,0c0,0,0,0,0,0c-0.8,0.2-1.2,0.9-1.2,1.5c0,0.3-0.1,0.6-0.1,0.9l-1,5.4
							c-0.1,0.7-0.2,1.1-0.2,1.4c0,1.7,1.6,2.5,3.2,2.5c0,0,1.5,0,2.6-0.8c0.2-0.2,0.4-0.3,0.6-0.5c0,0.2,0.1,0.4,0.3,0.5
							c0.3,0.3,0.8,0.5,1.3,0.5c0.5,0,1-0.2,1.3-0.5c0.2-0.2,0.3-0.5,0.3-0.7v-0.2c0-0.8,0.2-2.2,0.7-4.9c0.3-1.7,0.6-3.1,0.9-4.2
							C158.7,17.1,158.6,16.8,158.5,16.7z"/>
					</g>
					<g>
						<g>
							<path class="st0" d="M169.8,13.3c-0.3-0.4-0.9-0.5-1.6-0.4c0,0-0.1,0-0.1,0c-0.1,0-0.1,0-0.2,0c-0.9,0.1-1.3,0.8-1.3,1.4
								c0,0.4,0,0.9-0.2,1.7c-0.3,0-0.6-0.1-1-0.1c-1.9,0-3.8,0.9-5.1,2.4c-1.8,2.3-2.2,5.1-2.2,5.9c0,2.6,1.8,3.7,3.7,3.7
								c1.3,0,2.2-0.7,2.9-1.5c0,0.3,0.1,0.5,0.3,0.7c0.3,0.3,0.8,0.6,1.4,0.6c0.8,0,1.5-0.6,1.5-1.3c0-0.9,0.2-2.2,0.4-3.2
								c0-0.2,0.1-0.4,0.1-0.5l1.1-6.2c0-0.2,0.1-0.4,0.1-0.6c0-0.1,0-0.2,0-0.3c0-0.1,0-0.1,0-0.2c0-0.3,0.1-0.5,0.1-0.7
								c0-0.1,0-0.2,0-0.3c0-0.2,0.1-0.4,0.1-0.5C170,13.7,169.9,13.5,169.8,13.3z M161.4,23.6c0-1,0.7-5.9,3.8-5.9
								c0.3,0,0.5,0,0.8,0.1c-0.7,3.8-1,5.2-1.5,6.2c-0.8,1.6-1.7,1.8-2,1.8C161.9,25.8,161.4,25,161.4,23.6z"/>
						</g>
					</g>
				</g>
			</g>
			<path class="st12" d="M143.5,14c0,0-1,6.7-1.6,10.9c-0.1,0.3,0.4,2.2,1-3.4C143.4,16,143.8,12.5,143.5,14z"/>
			<path class="st12" d="M149.1,17.8c0,0-0.7,4.9-1.2,8c-0.1,0.3,0.4,1.6,0.8-2.4C149.1,19.2,149.3,16.7,149.1,17.8z"/>
			<path class="st12" d="M134.3,17.3c0,0-2.3,1.2-3.4,4.8c-1.3,4.2,1.4,5.6,2.4,5.7c0,0-0.9-0.5-1.6-1.6
				C130.7,24.3,130.3,20.7,134.3,17.3z"/>
			<path class="st12" d="M162.3,17.3c0,0-2.3,1.2-3.4,4.8c-1.3,4.2,1.4,5.6,2.4,5.7c0,0-0.9-0.5-1.6-1.6
				C158.7,24.3,158.2,20.7,162.3,17.3z"/>
			<path class="st12" d="M124.5,13.5c0,0-5.1,2.6-1.9,6.4C122.5,19.8,120.2,16.3,124.5,13.5z"/>
			<path class="st12" d="M124.5,26.3c0,0,3.8-1.5,1.1-4.6C125.6,21.7,129.2,24.9,124.5,26.3z"/>
		</g>
	</g>
</g>
</svg>
